<svg width="317" height="46" viewBox="0 0 317 46" fill="none" xmlns="http://www.w3.org/2000/svg">
<path d="M7.48 4V18H5.28V12.36C5.04 12.6267 4.74 12.8267 4.38 12.96C4.03333 13.08 3.70667 13.14 3.4 13.14C2.49333 13.14 1.80667 12.8467 1.34 12.26C0.886667 11.66 0.66 10.88 0.66 9.92V4H2.86V9.74C2.86 10.2067 2.98667 10.5533 3.24 10.78C3.49333 11.0067 3.79333 11.12 4.14 11.12C4.48667 11.12 4.76 11 4.96 10.76C5.17333 10.5067 5.28 10.1467 5.28 9.68V4H7.48ZM11.3008 9.9H14.3208V11.9H11.3008V16H15.1008V18H9.10078V4H15.1008V6H11.3008V9.9ZM15.8441 16.02C16.0974 16.02 16.3041 16.0067 16.4641 15.98C16.6374 15.9533 16.7774 15.8933 16.8841 15.8C16.9907 15.6933 17.0641 15.5467 17.1041 15.36C17.1574 15.16 17.1907 14.9 17.2041 14.58L17.5641 4H23.7841V18H21.5441V6H19.6241L19.3841 14.46C19.3441 15.74 19.0707 16.6533 18.5641 17.2C18.0707 17.7467 17.2774 18.02 16.1841 18.02H15.8441V16.02ZM25.068 18C25.1746 17.7333 25.2413 17.4733 25.268 17.22C25.2946 16.9533 25.308 16.6467 25.308 16.3V14.14C25.308 13.4067 25.408 12.7867 25.608 12.28C25.8213 11.76 26.208 11.3867 26.768 11.16C25.808 10.7067 25.328 9.76 25.328 8.32V7.22C25.328 6.14 25.5813 5.33333 26.088 4.8C26.608 4.26667 27.4413 4 28.588 4H31.908V18H29.708V12.3H28.948C28.4413 12.3 28.0746 12.4333 27.848 12.7C27.6213 12.9667 27.508 13.4267 27.508 14.08V16.28C27.508 16.56 27.5013 16.7933 27.488 16.98C27.488 17.1667 27.4746 17.32 27.448 17.44C27.4346 17.56 27.4146 17.66 27.388 17.74C27.3613 17.82 27.3346 17.9067 27.308 18H25.068ZM28.648 6C28.2613 6 27.9746 6.11333 27.788 6.34C27.6146 6.56667 27.528 6.93333 27.528 7.44V8.82C27.528 9.38 27.6413 9.76667 27.868 9.98C28.108 10.1933 28.4346 10.3 28.848 10.3H29.708V6H28.648ZM33.5348 18V4H39.6948V6H35.7348V9.58H37.0148C38.1215 9.58 38.9482 9.87333 39.4948 10.46C40.0548 11.0467 40.3348 11.9067 40.3348 13.04V14.54C40.3348 15.6733 40.0548 16.5333 39.4948 17.12C38.9482 17.7067 38.1215 18 37.0148 18H33.5348ZM37.0148 16C37.3615 16 37.6348 15.9067 37.8348 15.72C38.0348 15.5333 38.1348 15.1867 38.1348 14.68V12.9C38.1348 12.3933 38.0348 12.0467 37.8348 11.86C37.6348 11.6733 37.3615 11.58 37.0148 11.58H35.7348V16H37.0148ZM44.0756 18H41.8156V4H43.7756V12.86L44.5756 9.78L46.3756 4H48.7956V18H46.8156V8.14L45.9156 11.58L44.0756 18ZM52.5508 18H50.3508V4H52.5508V10H55.0508V4H57.2908V18H55.0508V12H52.5508V18ZM65.2659 12.78V14.64C65.2659 15.7733 64.9859 16.6467 64.4259 17.26C63.8793 17.86 63.0659 18.16 61.9859 18.16C60.9059 18.16 60.0859 17.86 59.5259 17.26C58.9793 16.6467 58.7059 15.7733 58.7059 14.64V7.36C58.7059 6.22667 58.9793 5.36 59.5259 4.76C60.0859 4.14667 60.9059 3.84 61.9859 3.84C63.0659 3.84 63.8793 4.14667 64.4259 4.76C64.9859 5.36 65.2659 6.22667 65.2659 7.36V8.72H63.1859V7.22C63.1859 6.71333 63.0793 6.36 62.8659 6.16C62.6659 5.94667 62.3926 5.84 62.0459 5.84C61.6993 5.84 61.4193 5.94667 61.2059 6.16C61.0059 6.36 60.9059 6.71333 60.9059 7.22V14.78C60.9059 15.2867 61.0059 15.64 61.2059 15.84C61.4193 16.04 61.6993 16.14 62.0459 16.14C62.3926 16.14 62.6659 16.04 62.8659 15.84C63.0793 15.64 63.1859 15.2867 63.1859 14.78V12.78H65.2659ZM69.4808 12.42L68.8008 13.7V18H66.6008V4H68.8008V10.1L71.6808 4H73.8808L70.8208 10.24L73.8808 18H71.6208L69.4808 12.42ZM82.002 18H79.782L79.402 15.46H76.702L76.322 18H74.302L76.542 4H79.762L82.002 18ZM76.982 13.56H79.102L78.042 6.48L76.982 13.56ZM82.6266 18C82.7332 17.7333 82.7999 17.4733 82.8266 17.22C82.8532 16.9533 82.8666 16.6467 82.8666 16.3V14.14C82.8666 13.4067 82.9666 12.7867 83.1666 12.28C83.3799 11.76 83.7666 11.3867 84.3266 11.16C83.3666 10.7067 82.8866 9.76 82.8866 8.32V7.22C82.8866 6.14 83.1399 5.33333 83.6466 4.8C84.1666 4.26667 84.9999 4 86.1466 4H89.4666V18H87.2666V12.3H86.5066C85.9999 12.3 85.6332 12.4333 85.4066 12.7C85.1799 12.9667 85.0666 13.4267 85.0666 14.08V16.28C85.0666 16.56 85.0599 16.7933 85.0466 16.98C85.0466 17.1667 85.0332 17.32 85.0066 17.44C84.9932 17.56 84.9732 17.66 84.9466 17.74C84.9199 17.82 84.8932 17.9067 84.8666 18H82.6266ZM86.2066 6C85.8199 6 85.5332 6.11333 85.3466 6.34C85.1732 6.56667 85.0866 6.93333 85.0866 7.44V8.82C85.0866 9.38 85.1999 9.76667 85.4266 9.98C85.6666 10.1933 85.9932 10.3 86.4066 10.3H87.2666V6H86.2066ZM94.1789 18V4H96.3789V16H98.2789V4H100.479V16H102.379V4H104.579V18H94.1789ZM109.051 12.42L108.371 13.7V18H106.171V4H108.371V10.1L111.251 4H113.451L110.391 10.24L113.451 18H111.191L109.051 12.42ZM116.472 14.78C116.472 15.2867 116.572 15.6467 116.772 15.86C116.986 16.06 117.266 16.16 117.612 16.16C117.959 16.16 118.232 16.06 118.432 15.86C118.646 15.6467 118.752 15.2867 118.752 14.78V7.22C118.752 6.71333 118.646 6.36 118.432 6.16C118.232 5.94667 117.959 5.84 117.612 5.84C117.266 5.84 116.986 5.94667 116.772 6.16C116.572 6.36 116.472 6.71333 116.472 7.22V14.78ZM114.272 7.36C114.272 6.22667 114.559 5.36 115.132 4.76C115.706 4.14667 116.532 3.84 117.612 3.84C118.692 3.84 119.519 4.14667 120.092 4.76C120.666 5.36 120.952 6.22667 120.952 7.36V14.64C120.952 15.7733 120.666 16.6467 120.092 17.26C119.519 17.86 118.692 18.16 117.612 18.16C116.532 18.16 115.706 17.86 115.132 17.26C114.559 16.6467 114.272 15.7733 114.272 14.64V7.36ZM121.762 16.02C122.015 16.02 122.222 16.0067 122.382 15.98C122.555 15.9533 122.695 15.8933 122.802 15.8C122.909 15.6933 122.982 15.5467 123.022 15.36C123.075 15.16 123.109 14.9 123.122 14.58L123.482 4H129.702V18H127.462V6H125.542L125.302 14.46C125.262 15.74 124.989 16.6533 124.482 17.2C123.989 17.7467 123.195 18.02 122.102 18.02H121.762V16.02ZM138.506 18H136.286L135.906 15.46H133.206L132.826 18H130.806L133.046 4H136.266L138.506 18ZM133.486 13.56H135.606L134.546 6.48L133.486 13.56ZM149.016 12.78V14.64C149.016 15.7733 148.736 16.6467 148.176 17.26C147.629 17.86 146.816 18.16 145.736 18.16C144.656 18.16 143.836 17.86 143.276 17.26C142.729 16.6467 142.456 15.7733 142.456 14.64V7.36C142.456 6.22667 142.729 5.36 143.276 4.76C143.836 4.14667 144.656 3.84 145.736 3.84C146.816 3.84 147.629 4.14667 148.176 4.76C148.736 5.36 149.016 6.22667 149.016 7.36V8.72H146.936V7.22C146.936 6.71333 146.829 6.36 146.616 6.16C146.416 5.94667 146.143 5.84 145.796 5.84C145.449 5.84 145.169 5.94667 144.956 6.16C144.756 6.36 144.656 6.71333 144.656 7.22V14.78C144.656 15.2867 144.756 15.64 144.956 15.84C145.169 16.04 145.449 16.14 145.796 16.14C146.143 16.14 146.416 16.04 146.616 15.84C146.829 15.64 146.936 15.2867 146.936 14.78V12.78H149.016ZM152.551 18H150.351V4H157.291V18H155.051V6H152.551V18ZM161.086 9.9H164.106V11.9H161.086V16H164.886V18H158.886V4H164.886V6H161.086V9.9ZM166.249 4H168.449V16H170.949V4H173.189V16.04H174.149V19.88H172.009V18H166.249V4ZM177.611 18H175.351V4H177.311V12.86L178.111 9.78L179.911 4H182.331V18H180.351V8.14L179.451 11.58L177.611 18ZM191.006 18H188.786L188.406 15.46H185.706L185.326 18H183.306L185.546 4H188.766L191.006 18ZM185.986 13.56H188.106L187.046 6.48L185.986 13.56ZM191.41 16.02C191.664 16.02 191.87 16.0067 192.03 15.98C192.204 15.9533 192.344 15.8933 192.45 15.8C192.557 15.6933 192.63 15.5467 192.67 15.36C192.724 15.16 192.757 14.9 192.77 14.58L193.13 4H199.35V18H197.11V6H195.19L194.95 14.46C194.91 15.74 194.637 16.6533 194.13 17.2C193.637 17.7467 192.844 18.02 191.75 18.02H191.41V16.02ZM201.034 18V4H203.234V9.26H204.274C205.381 9.26 206.201 9.55333 206.734 10.14C207.281 10.7267 207.554 11.5867 207.554 12.72V14.54C207.554 15.6733 207.281 16.5333 206.734 17.12C206.201 17.7067 205.381 18 204.274 18H201.034ZM204.274 16C204.621 16 204.888 15.9067 205.074 15.72C205.261 15.5333 205.354 15.1867 205.354 14.68V12.58C205.354 12.0733 205.261 11.7267 205.074 11.54C204.888 11.3533 204.621 11.26 204.274 11.26H203.234V16H204.274ZM211.066 18H208.866V4H211.066V10H213.566V4H215.806V18H213.566V12H211.066V18ZM219.422 14.78C219.422 15.2867 219.522 15.6467 219.722 15.86C219.935 16.06 220.215 16.16 220.562 16.16C220.908 16.16 221.182 16.06 221.382 15.86C221.595 15.6467 221.702 15.2867 221.702 14.78V7.22C221.702 6.71333 221.595 6.36 221.382 6.16C221.182 5.94667 220.908 5.84 220.562 5.84C220.215 5.84 219.935 5.94667 219.722 6.16C219.522 6.36 219.422 6.71333 219.422 7.22V14.78ZM217.222 7.36C217.222 6.22667 217.508 5.36 218.082 4.76C218.655 4.14667 219.482 3.84 220.562 3.84C221.642 3.84 222.468 4.14667 223.042 4.76C223.615 5.36 223.902 6.22667 223.902 7.36V14.64C223.902 15.7733 223.615 16.6467 223.042 17.26C222.468 17.86 221.642 18.16 220.562 18.16C219.482 18.16 218.655 17.86 218.082 17.26C217.508 16.6467 217.222 15.7733 217.222 14.64V7.36ZM227.591 18H225.331V4H227.291V12.86L228.091 9.78L229.891 4H232.311V18H230.331V8.14L229.431 11.58L227.591 18ZM231.191 0.879999C231.191 1.56 230.998 2.1 230.611 2.5C230.225 2.9 229.638 3.1 228.851 3.1C228.078 3.1 227.505 2.9 227.131 2.5C226.771 2.1 226.578 1.56 226.551 0.879999H227.911C227.938 1.25333 228.025 1.5 228.171 1.62C228.331 1.74 228.558 1.8 228.851 1.8C229.158 1.8 229.391 1.74 229.551 1.62C229.725 1.5 229.825 1.25333 229.851 0.879999H231.191ZM239.211 18H237.011V4H243.951V18H241.711V6H239.211V18ZM247.566 14.78C247.566 15.2867 247.666 15.6467 247.866 15.86C248.079 16.06 248.359 16.16 248.706 16.16C249.053 16.16 249.326 16.06 249.526 15.86C249.739 15.6467 249.846 15.2867 249.846 14.78V7.22C249.846 6.71333 249.739 6.36 249.526 6.16C249.326 5.94667 249.053 5.84 248.706 5.84C248.359 5.84 248.079 5.94667 247.866 6.16C247.666 6.36 247.566 6.71333 247.566 7.22V14.78ZM245.366 7.36C245.366 6.22667 245.653 5.36 246.226 4.76C246.799 4.14667 247.626 3.84 248.706 3.84C249.786 3.84 250.613 4.14667 251.186 4.76C251.759 5.36 252.046 6.22667 252.046 7.36V14.64C252.046 15.7733 251.759 16.6467 251.186 17.26C250.613 17.86 249.786 18.16 248.706 18.16C247.626 18.16 246.799 17.86 246.226 17.26C245.653 16.6467 245.366 15.7733 245.366 14.64V7.36ZM259.836 19.88V18H255.136V19.88H252.996V16.04H253.856C254.042 15.8 254.169 15.54 254.236 15.26C254.316 14.98 254.369 14.6333 254.396 14.22L254.896 4H261.056V16.04H262.016V19.88H259.836ZM256.556 14.18C256.529 14.7133 256.462 15.1133 256.356 15.38C256.262 15.6467 256.122 15.8667 255.936 16.04H258.816V6H256.956L256.556 14.18ZM263.261 18V4H269.061V6H265.461V18H263.261ZM272.566 14.78C272.566 15.2867 272.666 15.6467 272.866 15.86C273.079 16.06 273.359 16.16 273.706 16.16C274.053 16.16 274.326 16.06 274.526 15.86C274.739 15.6467 274.846 15.2867 274.846 14.78V7.22C274.846 6.71333 274.739 6.36 274.526 6.16C274.326 5.94667 274.053 5.84 273.706 5.84C273.359 5.84 273.079 5.94667 272.866 6.16C272.666 6.36 272.566 6.71333 272.566 7.22V14.78ZM270.366 7.36C270.366 6.22667 270.653 5.36 271.226 4.76C271.799 4.14667 272.626 3.84 273.706 3.84C274.786 3.84 275.613 4.14667 276.186 4.76C276.759 5.36 277.046 6.22667 277.046 7.36V14.64C277.046 15.7733 276.759 16.6467 276.186 17.26C275.613 17.86 274.786 18.16 273.706 18.16C272.626 18.16 271.799 17.86 271.226 17.26C270.653 16.6467 270.366 15.7733 270.366 14.64V7.36ZM277.836 4H284.636V6H282.336V18H280.136V6H277.836V4ZM287.625 14.78C287.625 15.2867 287.725 15.6467 287.925 15.86C288.138 16.06 288.418 16.16 288.765 16.16C289.111 16.16 289.385 16.06 289.585 15.86C289.798 15.6467 289.905 15.2867 289.905 14.78V7.22C289.905 6.71333 289.798 6.36 289.585 6.16C289.385 5.94667 289.111 5.84 288.765 5.84C288.418 5.84 288.138 5.94667 287.925 6.16C287.725 6.36 287.625 6.71333 287.625 7.22V14.78ZM285.425 7.36C285.425 6.22667 285.711 5.36 286.285 4.76C286.858 4.14667 287.685 3.84 288.765 3.84C289.845 3.84 290.671 4.14667 291.245 4.76C291.818 5.36 292.105 6.22667 292.105 7.36V14.64C292.105 15.7733 291.818 16.6467 291.245 17.26C290.671 17.86 289.845 18.16 288.765 18.16C287.685 18.16 286.858 17.86 286.285 17.26C285.711 16.6467 285.425 15.7733 285.425 14.64V7.36ZM296.854 4C298.001 4 298.828 4.26667 299.334 4.8C299.854 5.33333 300.114 6.14 300.114 7.22V7.72C300.114 8.44 300.001 9.03333 299.774 9.5C299.548 9.96667 299.188 10.3133 298.694 10.54C299.294 10.7667 299.714 11.14 299.954 11.66C300.208 12.1667 300.334 12.7933 300.334 13.54V14.68C300.334 15.76 300.054 16.5867 299.494 17.16C298.934 17.72 298.101 18 296.994 18H293.534V4H296.854ZM295.734 11.7V16H296.994C297.368 16 297.648 15.9 297.834 15.7C298.034 15.5 298.134 15.14 298.134 14.62V13.4C298.134 12.7467 298.021 12.3 297.794 12.06C297.581 11.82 297.221 11.7 296.714 11.7H295.734ZM295.734 6V9.7H296.594C297.008 9.7 297.328 9.59333 297.554 9.38C297.794 9.16667 297.914 8.78 297.914 8.22V7.44C297.914 6.93333 297.821 6.56667 297.634 6.34C297.461 6.11333 297.181 6 296.794 6H295.734ZM304.539 12.42L303.859 13.7V18H301.659V4H303.859V10.1L306.739 4H308.939L305.879 10.24L308.939 18H306.679L304.539 12.42ZM312.201 18H309.941V4H311.901V12.86L312.701 9.78L314.501 4H316.921V18H314.941V8.14L314.041 11.58L312.201 18Z" fill="#BCC1CA"/>
<path d="M10.74 45.82V43H3.69V45.82H0.48V40.06H1.77C2.05 39.7 2.24 39.31 2.34 38.89C2.46 38.47 2.54 37.95 2.58 37.33L3.33 22H12.57V40.06H14.01V45.82H10.74ZM5.82 37.27C5.78 38.07 5.68 38.67 5.52 39.07C5.38 39.47 5.17 39.8 4.89 40.06H9.21V25H6.42L5.82 37.27ZM18.8784 38.17C18.8784 38.93 19.0284 39.47 19.3284 39.79C19.6484 40.09 20.0684 40.24 20.5884 40.24C21.1084 40.24 21.5184 40.09 21.8184 39.79C22.1384 39.47 22.2984 38.93 22.2984 38.17V26.83C22.2984 26.07 22.1384 25.54 21.8184 25.24C21.5184 24.92 21.1084 24.76 20.5884 24.76C20.0684 24.76 19.6484 24.92 19.3284 25.24C19.0284 25.54 18.8784 26.07 18.8784 26.83V38.17ZM15.5784 27.04C15.5784 25.34 16.0084 24.04 16.8684 23.14C17.7284 22.22 18.9684 21.76 20.5884 21.76C22.2084 21.76 23.4484 22.22 24.3084 23.14C25.1684 24.04 25.5984 25.34 25.5984 27.04V37.96C25.5984 39.66 25.1684 40.97 24.3084 41.89C23.4484 42.79 22.2084 43.24 20.5884 43.24C18.9684 43.24 17.7284 42.79 16.8684 41.89C16.0084 40.97 15.5784 39.66 15.5784 37.96V27.04ZM37.313 35.17V37.96C37.313 39.66 36.893 40.97 36.053 41.89C35.233 42.79 34.013 43.24 32.393 43.24C30.773 43.24 29.543 42.79 28.703 41.89C27.883 40.97 27.473 39.66 27.473 37.96V27.04C27.473 25.34 27.883 24.04 28.703 23.14C29.543 22.22 30.773 21.76 32.393 21.76C34.013 21.76 35.233 22.22 36.053 23.14C36.893 24.04 37.313 25.34 37.313 27.04V29.08H34.193V26.83C34.193 26.07 34.033 25.54 33.713 25.24C33.413 24.92 33.003 24.76 32.483 24.76C31.963 24.76 31.543 24.92 31.223 25.24C30.923 25.54 30.773 26.07 30.773 26.83V38.17C30.773 38.93 30.923 39.46 31.223 39.76C31.543 40.06 31.963 40.21 32.483 40.21C33.003 40.21 33.413 40.06 33.713 39.76C34.033 39.46 34.193 38.93 34.193 38.17V35.17H37.313ZM49.9952 43H46.6652L46.0952 39.19H42.0452L41.4752 43H38.4452L41.8052 22H46.6352L49.9952 43ZM42.4652 36.34H45.6452L44.0552 25.72L42.4652 36.34ZM62.212 43H58.882L58.312 39.19H54.262L53.692 43H50.662L54.022 22H58.852L62.212 43ZM54.682 36.34H57.862L56.272 25.72L54.682 36.34ZM69.6288 40.63H68.3988C66.7388 40.63 65.4988 40.19 64.6788 39.31C63.8788 38.43 63.4788 37.14 63.4788 35.44V29.71C63.4788 28.01 63.8788 26.72 64.6788 25.84C65.4988 24.96 66.7388 24.52 68.3988 24.52H69.6288V22H72.8688V24.52H74.0988C75.7588 24.52 76.9888 24.96 77.7888 25.84C78.6088 26.72 79.0188 28.01 79.0188 29.71V35.44C79.0188 37.14 78.6088 38.43 77.7888 39.31C76.9888 40.19 75.7588 40.63 74.0988 40.63H72.8688V43H69.6288V40.63ZM72.8688 27.43V37.75H74.0988C74.6188 37.75 75.0188 37.59 75.2988 37.27C75.5988 36.95 75.7488 36.41 75.7488 35.65V29.5C75.7488 28.74 75.5988 28.21 75.2988 27.91C75.0188 27.59 74.6188 27.43 74.0988 27.43H72.8688ZM69.6288 27.43H68.3988C67.8788 27.43 67.4688 27.59 67.1688 27.91C66.8888 28.21 66.7488 28.74 66.7488 29.5V35.65C66.7488 36.41 66.8888 36.95 67.1688 37.27C67.4688 37.59 67.8788 37.75 68.3988 37.75H69.6288V27.43ZM90.7573 22C92.4173 22 93.6473 22.44 94.4473 23.32C95.2673 24.2 95.6773 25.49 95.6773 27.19V29.92C95.6773 31.62 95.2673 32.91 94.4473 33.79C93.6473 34.67 92.4173 35.11 90.7573 35.11H89.1973V43H85.8973V22H90.7573ZM89.1973 25V32.11H90.7573C91.2773 32.11 91.6773 31.97 91.9573 31.69C92.2373 31.41 92.3773 30.89 92.3773 30.13V26.98C92.3773 26.22 92.2373 25.7 91.9573 25.42C91.6773 25.14 91.2773 25 90.7573 25H89.1973ZM100.236 38.17C100.236 38.93 100.386 39.47 100.686 39.79C101.006 40.09 101.426 40.24 101.946 40.24C102.466 40.24 102.876 40.09 103.176 39.79C103.496 39.47 103.656 38.93 103.656 38.17V26.83C103.656 26.07 103.496 25.54 103.176 25.24C102.876 24.92 102.466 24.76 101.946 24.76C101.426 24.76 101.006 24.92 100.686 25.24C100.386 25.54 100.236 26.07 100.236 26.83V38.17ZM96.9359 27.04C96.9359 25.34 97.3659 24.04 98.2259 23.14C99.0859 22.22 100.326 21.76 101.946 21.76C103.566 21.76 104.806 22.22 105.666 23.14C106.526 24.04 106.956 25.34 106.956 27.04V37.96C106.956 39.66 106.526 40.97 105.666 41.89C104.806 42.79 103.566 43.24 101.946 43.24C100.326 43.24 99.0859 42.79 98.2259 41.89C97.3659 40.97 96.9359 39.66 96.9359 37.96V27.04ZM118.67 35.17V37.96C118.67 39.66 118.25 40.97 117.41 41.89C116.59 42.79 115.37 43.24 113.75 43.24C112.13 43.24 110.9 42.79 110.06 41.89C109.24 40.97 108.83 39.66 108.83 37.96V27.04C108.83 25.34 109.24 24.04 110.06 23.14C110.9 22.22 112.13 21.76 113.75 21.76C115.37 21.76 116.59 22.22 117.41 23.14C118.25 24.04 118.67 25.34 118.67 27.04V29.08H115.55V26.83C115.55 26.07 115.39 25.54 115.07 25.24C114.77 24.92 114.36 24.76 113.84 24.76C113.32 24.76 112.9 24.92 112.58 25.24C112.28 25.54 112.13 26.07 112.13 26.83V38.17C112.13 38.93 112.28 39.46 112.58 39.76C112.9 40.06 113.32 40.21 113.84 40.21C114.36 40.21 114.77 40.06 115.07 39.76C115.39 39.46 115.55 38.93 115.55 38.17V35.17H118.67ZM130.243 35.17V37.96C130.243 39.66 129.823 40.97 128.983 41.89C128.163 42.79 126.943 43.24 125.323 43.24C123.703 43.24 122.473 42.79 121.633 41.89C120.813 40.97 120.403 39.66 120.403 37.96V27.04C120.403 25.34 120.813 24.04 121.633 23.14C122.473 22.22 123.703 21.76 125.323 21.76C126.943 21.76 128.163 22.22 128.983 23.14C129.823 24.04 130.243 25.34 130.243 27.04V29.08H127.123V26.83C127.123 26.07 126.963 25.54 126.643 25.24C126.343 24.92 125.933 24.76 125.413 24.76C124.893 24.76 124.473 24.92 124.153 25.24C123.853 25.54 123.703 26.07 123.703 26.83V38.17C123.703 38.93 123.853 39.46 124.153 39.76C124.473 40.06 124.893 40.21 125.413 40.21C125.933 40.21 126.343 40.06 126.643 39.76C126.963 39.46 127.123 38.93 127.123 38.17V35.17H130.243ZM135.635 43H132.245V22H135.185V35.29L136.385 30.67L139.085 22H142.715V43H139.745V28.21L138.395 33.37L135.635 43ZM148.438 43H145.048V22H147.988V35.29L149.188 30.67L151.888 22H155.518V43H152.548V28.21L151.198 33.37L148.438 43Z" fill="#FFCC00"/>
</svg>
